<svg width="132" height="158" viewBox="0 0 132 158" fill="none" xmlns="http://www.w3.org/2000/svg">
<g filter="url(#filter0_bi_13_2)">
<path d="M0 35.1111C0 18.5596 0 10.2838 5.15492 5.1419C10.3098 0 18.6066 0 35.2 0H96.8C113.393 0 121.69 0 126.845 5.1419C132 10.2838 132 18.5596 132 35.1111V122.889C132 139.44 132 147.716 126.845 152.858C121.69 158 113.393 158 96.8 158H35.2C18.6066 158 10.3098 158 5.15492 152.858C0 147.716 0 139.44 0 122.889V35.1111Z" fill="url(#paint0_radial_13_2)" fill-opacity="0.5"/>
</g>
<g filter="url(#filter1_di_13_2)">
<path fill-rule="evenodd" clip-rule="evenodd" d="M20 33.5C20 24.3873 24.1638 17 29.3 17H103.7C108.836 17 113 24.3873 113 33.5C113 42.6127 108.836 50 103.7 50H29.3C24.1638 50 20 42.6127 20 33.5Z" fill="url(#paint1_radial_13_2)"/>
</g>
<g style="mix-blend-mode:overlay">
<path d="M42.2796 71C42.2796 76.5228 38.1875 81 33.1398 81C28.092 81 24 76.5228 24 71C24 65.4772 28.092 61 33.1398 61C38.1875 61 42.2796 65.4772 42.2796 71Z" fill="white"/>
</g>
<g style="mix-blend-mode:overlay">
<path d="M75.1828 71C75.1828 76.5228 71.0908 81 66.043 81C60.9952 81 56.9032 76.5228 56.9032 71C56.9032 65.4772 60.9952 61 66.043 61C71.0908 61 75.1828 65.4772 75.1828 71Z" fill="white"/>
</g>
<g style="mix-blend-mode:overlay">
<path d="M109 71C109 76.5228 104.908 81 99.8602 81C94.8124 81 90.7204 76.5228 90.7204 71C90.7204 65.4772 94.8124 61 99.8602 61C104.908 61 109 65.4772 109 71Z" fill="white"/>
</g>
<g style="mix-blend-mode:overlay">
<path d="M42.2796 100C42.2796 105.523 38.1875 110 33.1398 110C28.092 110 24 105.523 24 100C24 94.4772 28.092 90 33.1398 90C38.1875 90 42.2796 94.4772 42.2796 100Z" fill="white"/>
</g>
<g style="mix-blend-mode:overlay">
<path d="M75.1828 100C75.1828 105.523 71.0908 110 66.043 110C60.9952 110 56.9032 105.523 56.9032 100C56.9032 94.4772 60.9952 90 66.043 90C71.0908 90 75.1828 94.4772 75.1828 100Z" fill="white"/>
</g>
<g style="mix-blend-mode:overlay">
<path d="M109 100C109 105.523 104.908 110 99.8602 110C94.8124 110 90.7204 105.523 90.7204 100C90.7204 94.4772 94.8124 90 99.8602 90C104.908 90 109 94.4772 109 100Z" fill="white"/>
</g>
<g style="mix-blend-mode:overlay">
<path d="M42.2796 129C42.2796 134.523 38.1875 139 33.1398 139C28.092 139 24 134.523 24 129C24 123.477 28.092 119 33.1398 119C38.1875 119 42.2796 123.477 42.2796 129Z" fill="white"/>
</g>
<g style="mix-blend-mode:overlay">
<path d="M75.1828 129C75.1828 134.523 71.0908 139 66.043 139C60.9952 139 56.9032 134.523 56.9032 129C56.9032 123.477 60.9952 119 66.043 119C71.0908 119 75.1828 123.477 75.1828 129Z" fill="white"/>
</g>
<g style="mix-blend-mode:overlay">
<path d="M109 129C109 134.523 104.908 139 99.8602 139C94.8124 139 90.7204 134.523 90.7204 129C90.7204 123.477 94.8124 119 99.8602 119C104.908 119 109 123.477 109 129Z" fill="white"/>
</g>
<defs>
<filter id="filter0_bi_13_2" x="-25" y="-25" width="182" height="208" filterUnits="userSpaceOnUse" color-interpolation-filters="sRGB">
<feFlood flood-opacity="0" result="BackgroundImageFix"/>
<feGaussianBlur in="BackgroundImage" stdDeviation="12.5"/>
<feComposite in2="SourceAlpha" operator="in" result="effect1_backgroundBlur_13_2"/>
<feBlend mode="normal" in="SourceGraphic" in2="effect1_backgroundBlur_13_2" result="shape"/>
<feColorMatrix in="SourceAlpha" type="matrix" values="0 0 0 0 0 0 0 0 0 0 0 0 0 0 0 0 0 0 127 0" result="hardAlpha"/>
<feOffset dy="2"/>
<feGaussianBlur stdDeviation="0.5"/>
<feComposite in2="hardAlpha" operator="arithmetic" k2="-1" k3="1"/>
<feColorMatrix type="matrix" values="0 0 0 0 1 0 0 0 0 1 0 0 0 0 1 0 0 0 0.15 0"/>
<feBlend mode="normal" in2="shape" result="effect2_innerShadow_13_2"/>
</filter>
<filter id="filter1_di_13_2" x="20" y="17" width="95" height="35" filterUnits="userSpaceOnUse" color-interpolation-filters="sRGB">
<feFlood flood-opacity="0" result="BackgroundImageFix"/>
<feColorMatrix in="SourceAlpha" type="matrix" values="0 0 0 0 0 0 0 0 0 0 0 0 0 0 0 0 0 0 127 0" result="hardAlpha"/>
<feOffset dx="1" dy="1"/>
<feGaussianBlur stdDeviation="0.5"/>
<feColorMatrix type="matrix" values="0 0 0 0 0 0 0 0 0 0 0 0 0 0 0 0 0 0 0.07 0"/>
<feBlend mode="normal" in2="BackgroundImageFix" result="effect1_dropShadow_13_2"/>
<feBlend mode="normal" in="SourceGraphic" in2="effect1_dropShadow_13_2" result="shape"/>
<feColorMatrix in="SourceAlpha" type="matrix" values="0 0 0 0 0 0 0 0 0 0 0 0 0 0 0 0 0 0 127 0" result="hardAlpha"/>
<feOffset dx="1" dy="1"/>
<feGaussianBlur stdDeviation="0.5"/>
<feComposite in2="hardAlpha" operator="arithmetic" k2="-1" k3="1"/>
<feColorMatrix type="matrix" values="0 0 0 0 1 0 0 0 0 1 0 0 0 0 1 0 0 0 1 0"/>
<feBlend mode="normal" in2="shape" result="effect2_innerShadow_13_2"/>
</filter>
<radialGradient id="paint0_radial_13_2" cx="0" cy="0" r="1" gradientUnits="userSpaceOnUse" gradientTransform="rotate(47.5832) scale(135.81 167.49)">
<stop stop-color="white"/>
<stop offset="1" stop-color="#66CCB2"/>
</radialGradient>
<radialGradient id="paint1_radial_13_2" cx="0" cy="0" r="1" gradientUnits="userSpaceOnUse" gradientTransform="translate(20 17) rotate(19.5367) scale(98.6813 68.1782)">
<stop stop-color="white"/>
<stop offset="0.729002" stop-color="#E6E6E6"/>
</radialGradient>
</defs>
</svg>
